#usda 1.0
(
    defaultPrim = "MolmoDrawer"
    kilogramsPerUnit = 1
    metersPerUnit = 1
    upAxis = "Z"
)

def Xform "MolmoDrawer"
{
    def Xform "drawer_372d9ee41d70550432c30a66a6e5b331_1_0_0_art" (
        apiSchemas = ["PhysicsArticulationRootAPI", "PhysxArticulationAPI"]
    )
    {
        matrix4d xformOp:transform = ( (1, 0, 0, 0), (0, 1, 0, 0), (0, 0, 1, 0), (-0.95, 2.1898999999999997, 0, 1) )
        uniform token[] xformOpOrder = ["xformOp:transform"]

        def Xform "drawer_372d9ee41d70550432c30a66a6e5b331_1_1_0" (
            apiSchemas = ["PhysicsRigidBodyAPI", "PhysxRigidBodyAPI", "PhysicsFilteredPairsAPI"]
        )
        {
            rel physics:filteredPairs = </MolmoDrawer/drawer_372d9ee41d70550432c30a66a6e5b331_1_0_0_art/drawer_372d9ee41d70550432c30a66a6e5b331_1_2_0>
            quatf xformOp:orient = (6.123234e-17, -3.309542e-17, 0.70710677, 0.70710677)
            float3 xformOp:scale = (1, 1, 1)
            double3 xformOp:translate = (0.95, -2.1898999999999997, 0.56)
            uniform token[] xformOpOrder = ["xformOp:translate", "xformOp:orient", "xformOp:scale"]

            def Mesh "drawer_372d9ee41d70550432c30a66a6e5b331_1_1_0_visual_0" (
                apiSchemas = ["MaterialBindingAPI"]
            )
            {
                float3[] extent = [(-0.24, -0.09999, -0.36712), (0.24, 0.05, 0.022)]
                int[] faceVertexCounts = [3, 3, 3, 3, 3, 3, 3, 3, 3, 3, 3, 3, 3, 3, 3, 3, 3, 3, 3, 3, 3, 3, 3, 3, 3, 3, 3, 3, 3, 3, 3, 3, 3, 3, 3, 3, 3, 3, 3, 3, 3, 3, 3, 3, 3, 3]
                int[] faceVertexIndices = [2, 1, 0, 3, 2, 0, 6, 5, 4, 7, 6, 4, 10, 9, 8, 11, 10, 8, 14, 13, 12, 15, 14, 12, 18, 17, 16, 19, 18, 16, 22, 21, 20, 23, 22, 20, 26, 25, 24, 27, 26, 24, 30, 29, 28, 31, 30, 28, 34, 33, 32, 35, 34, 32, 38, 37, 36, 39, 38, 36, 42, 41, 40, 43, 42, 40, 46, 45, 44, 47, 46, 44, 50, 49, 48, 51, 50, 48, 54, 53, 52, 55, 54, 52, 58, 57, 56, 59, 58, 56, 62, 61, 60, 63, 62, 60, 66, 65, 64, 67, 66, 64, 70, 69, 68, 71, 70, 68, 74, 73, 72, 75, 74, 72, 78, 77, 76, 79, 78, 76, 76, 77, 80, 81, 78, 79, 77, 82, 80, 83, 81, 79, 80, 82, 83, 82, 81, 83]
                rel material:binding = </FloorPlan1_physics/Materials/material_WhiteWoodClean>
                uniform token orientation = "rightHanded"
                point3f[] points = [(-0.24, 0.05, 0.02), (-0.238, 0.04801, 0.022), (-0.238, -0.09799, 0.022), (-0.24, -0.09999, 0.02), (-0.24, -0.09999, 0), (0.24, -0.09999, 0), (0.24, 0.05, 0), (-0.24, 0.05, 0), (-0.24, -0.09999, 0.02), (-0.24, -0.09999, 0), (-0.24, 0.05, 0), (-0.24, 0.05, 0.02), (-0.24, 0.05, 0.02), (-0.24, 0.05, 0), (0.24, 0.05, 0), (0.24, 0.05, 0.02), (0.24, 0.05, 0.02), (0.24, 0.05, 0), (0.24, -0.09999, 0), (0.24, -0.09999, 0.02), (0.24, -0.09999, 0.02), (0.24, -0.09999, 0), (-0.24, -0.09999, 0), (-0.24, -0.09999, 0.02), (-0.238, -0.09799, 0.022), (-0.238, 0.04801, 0.022), (0.23801, 0.04801, 0.022), (0.23801, -0.09799, 0.022), (-0.24, -0.09999, 0.02), (-0.238, -0.09799, 0.022), (0.23801, -0.09799, 0.022), (0.24, -0.09999, 0.02), (0.24, -0.09999, 0.02), (0.23801, -0.09799, 0.022), (0.23801, 0.04801, 0.022), (0.24, 0.05, 0.02), (0.24, 0.05, 0.02), (0.23801, 0.04801, 0.022), (-0.238, 0.04801, 0.022), (-0.24, 0.05, 0.02), (-0.23899, -0.099, -0.36712), (0.23901, -0.099, -0.36712), (0.23901, 0.04161, -0.36712), (-0.23899, 0.04161, -0.36712), (-0.224, -0.08949, -0.00612), (-0.224, -0.08949, -0.35287), (0.22401, -0.08949, -0.35287), (0.22401, -0.08949, -0.00612), (0.23901, -0.099, -0.36712), (0.23901, -0.09899, 0.00813), (0.23901, 0.04161, 0.00813), (0.23901, 0.04161, -0.36712), (-0.23899, -0.09899, 0.00813), (0.23901, -0.09899, 0.00813), (0.23901, -0.099, -0.36712), (-0.23899, -0.099, -0.36712), (-0.23899, 0.04161, -0.36712), (-0.23899, 0.04161, 0.00813), (-0.23899, -0.09899, 0.00813), (-0.23899, -0.099, -0.36712), (-0.224, 0.04161, -0.00612), (-0.224, -0.08949, -0.00612), (0.22401, -0.08949, -0.00612), (0.22401, 0.04161, -0.00612), (0.22401, 0.04161, -0.00612), (0.22401, -0.08949, -0.00612), (0.22401, -0.08949, -0.35287), (0.22401, 0.04161, -0.35287), (0.22401, 0.04161, -0.35287), (0.22401, -0.08949, -0.35287), (-0.224, -0.08949, -0.35287), (-0.224, 0.04161, -0.35287), (-0.224, 0.04161, -0.35287), (-0.224, -0.08949, -0.35287), (-0.224, -0.08949, -0.00612), (-0.224, 0.04161, -0.00612), (0.23901, 0.04161, -0.36712), (0.22401, 0.04161, -0.35287), (-0.224, 0.04161, -0.35287), (-0.23899, 0.04161, -0.36712), (0.23901, 0.04161, 0.00813), (-0.224, 0.04161, -0.00612), (0.22401, 0.04161, -0.00612), (-0.23899, 0.04161, 0.00813)]
                normal3f[] primvars:normals = [(-0.7071695, 0, 0.707044), (-0.7071155, 0, 0.707098), (-0.7071167, 0, 0.7070969), (-0.70717, 0, 0.7070436), (0, 0, -1), (-1, 0, 0), (0, 1, 0), (1, 0, 0), (0, -1, 0), (0, 0, 1), (0, -0.7071249, 0.7070886), (0, -0.7071359, 0.7070776), (0.7071692, 0, 0.7070442), (0.7071157, 0, 0.7070978), (0.7071169, 0, 0.7070967), (0.7071698, 0, 0.7070439), (0, 0.7071427, 0.7070708), (0, 0.7071373, 0.7070763), (0, 0.7071373, 0.7070762), (0, 1, -2.6e-7), (0, 1, -2.4e-7), (0, 1, -0.00000193), (0, 1, -0.00000177)] (
                    interpolation = "faceVarying"
                )
                int[] primvars:normals:indices = [0, 1, 2, 3, 0, 2, 4, 4, 4, 4, 4, 4, 5, 5, 5, 5, 5, 5, 6, 6, 6, 6, 6, 6, 7, 7, 7, 7, 7, 7, 8, 8, 8, 8, 8, 8, 9, 9, 9, 9, 9, 9, 10, 11, 11, 10, 10, 11, 12, 13, 14, 15, 12, 14, 16, 17, 18, 16, 16, 18, 4, 4, 4, 4, 4, 4, 6, 6, 6, 6, 6, 6, 7, 7, 7, 7, 7, 7, 8, 8, 8, 8, 8, 8, 5, 5, 5, 5, 5, 5, 4, 4, 4, 4, 4, 4, 5, 5, 5, 5, 5, 5, 9, 9, 9, 9, 9, 9, 7, 7, 7, 7, 7, 7, 6, 19, 20, 6, 6, 20, 20, 19, 6, 21, 6, 6, 19, 6, 6, 22, 21, 6, 6, 6, 22, 6, 21, 22]
                texCoord2f[] primvars:st = [(0.04103648, 3.26209), (0.04325577, 3.259871), (0.04325577, 3.073463), (0.04103648, 3.071244), (2.385606, 1.417786), (1.947727, 1.417786), (1.947727, 1.582214), (2.385606, 1.582214), (4.511402, 0.7675558), (4.488598, 0.7675558), (4.488598, 0.8991104), (4.511402, 0.8991104), (2.358688, 0.5124985), (2.358688, 0.4875016), (1.974645, 0.4875016), (1.974645, 0.5124985), (4.821931, 0.8991107), (4.844736, 0.8991107), (4.844736, 0.7675556), (4.821931, 0.7675556), (2.358689, 0.1791652), (2.358689, 0.1541682), (1.974645, 0.1541682), (1.974645, 0.1791652), (1.949975, 3.086488), (1.949975, 3.246845), (2.383358, 3.246845), (2.383358, 3.086488), (1.887809, 2.373485), (1.890244, 2.37592), (2.443089, 2.37592), (2.445524, 2.373485), (4.292298, 3.071249), (4.290077, 3.073468), (4.290077, 3.259866), (4.292298, 3.262085), (2.445447, 3.959848), (2.443012, 3.957414), (1.890321, 3.957414), (1.887887, 3.959848), (0.2179294, 0.7390001), (0.2179294, 0.2610002), (0.07732936, 0.2610002), (0.07732936, 0.7390001), (0.6567324, 0.9096287), (1.003482, 0.9096287), (1.003482, 0.4616289), (0.6567324, 0.4616289), (0.3753945, 0.4627773), (0.3753945, 0.8380271), (0.5159945, 0.8380271), (0.5159945, 0.4627773), (0.3713184, 0.4722557), (0.3713184, -0.00574429), (-0.00393155, -0.00574429), (-0.00393185, 0.4722557), (0.6582907, 0.8380273), (0.6582907, 0.4627774), (0.5176907, 0.4627774), (0.5176907, 0.8380273), (0.7407192, 0.4427294), (0.8718192, 0.4427294), (0.8718192, -0.0052709), (0.7407192, -0.0052709), (0.3735483, 0.4632272), (0.2424484, 0.4632272), (0.2424484, 0.8099768), (0.3735483, 0.8099768), (0.502148, 0.2447444), (0.371048, 0.2447444), (0.371048, 0.6927446), (0.502148, 0.6927446), (0.2404523, 0.4632273), (0.1093523, 0.4632273), (0.1093523, 0.8099768), (0.2404523, 0.8099768), (0.741814, -0.00574458), (0.7275639, 0.00925538), (0.7275639, 0.4572557), (0.7418144, 0.4722556), (0.3665639, -0.00574458), (0.380814, 0.4572557), (0.380814, 0.00925538), (0.3665639, 0.4722556)] (
                    interpolation = "faceVarying"
                )
                int[] primvars:st:indices = [2, 1, 0, 3, 2, 0, 6, 5, 4, 7, 6, 4, 10, 9, 8, 11, 10, 8, 14, 13, 12, 15, 14, 12, 18, 17, 16, 19, 18, 16, 22, 21, 20, 23, 22, 20, 26, 25, 24, 27, 26, 24, 30, 29, 28, 31, 30, 28, 34, 33, 32, 35, 34, 32, 38, 37, 36, 39, 38, 36, 42, 41, 40, 43, 42, 40, 46, 45, 44, 47, 46, 44, 50, 49, 48, 51, 50, 48, 54, 53, 52, 55, 54, 52, 58, 57, 56, 59, 58, 56, 62, 61, 60, 63, 62, 60, 66, 65, 64, 67, 66, 64, 70, 69, 68, 71, 70, 68, 74, 73, 72, 75, 74, 72, 78, 77, 76, 79, 78, 76, 76, 77, 80, 81, 78, 79, 77, 82, 80, 83, 81, 79, 80, 82, 83, 82, 81, 83]
                uniform token subdivisionScheme = "none"
                quatf xformOp:orient = (1, 0, 0, 0)
                float3 xformOp:scale = (1, 1, 1)
                matrix4d xformOp:transform = ( (1, 0, 0, 0), (0, 1, 0, 0), (0, 0, 1, 0), (0, 0, 0, 1) )
                double3 xformOp:translate = (0, 0, 0)
                uniform token[] xformOpOrder = ["xformOp:translate", "xformOp:orient", "xformOp:scale"]
            }

            def Cube "drawer_372d9ee41d70550432c30a66a6e5b331_1_1_0_collision_1" (
                apiSchemas = ["PhysicsCollisionAPI", "PhysxCollisionAPI", "PhysicsMassAPI"]
            )
            {
                float3[] extent = [(-0.5, -0.5, -0.5), (0.5, 0.5, 0.5)]
                float physics:density = 500
                uniform token purpose = "guide"
                double size = 1
                quatf xformOp:orient = (0, 1, 0, 0)
                float3 xformOp:scale = (0.479522, 0.1497466, 0.0227758)
                double3 xformOp:translate = (0, -0.024326, 0.000200987)
                uniform token[] xformOpOrder = ["xformOp:translate", "xformOp:orient", "xformOp:scale"]
            }

            def Cube "drawer_372d9ee41d70550432c30a66a6e5b331_1_1_0_collision_2" (
                apiSchemas = ["PhysicsCollisionAPI", "PhysxCollisionAPI", "PhysicsMassAPI"]
            )
            {
                float3[] extent = [(-0.5, -0.5, -0.5), (0.5, 0.5, 0.5)]
                float physics:density = 500
                uniform token purpose = "guide"
                double size = 1
                quatf xformOp:orient = (0, 1, 0, 0)
                float3 xformOp:scale = (0.479522, 0.1406414, 0.01476288)
                double3 xformOp:translate = (0, -0.0281502, -0.371062)
                uniform token[] xformOpOrder = ["xformOp:translate", "xformOp:orient", "xformOp:scale"]
            }

            def Cube "drawer_372d9ee41d70550432c30a66a6e5b331_1_1_0_collision_3" (
                apiSchemas = ["PhysicsCollisionAPI", "PhysxCollisionAPI", "PhysicsMassAPI"]
            )
            {
                float3[] extent = [(-0.5, -0.5, -0.5), (0.5, 0.5, 0.5)]
                float physics:density = 500
                uniform token purpose = "guide"
                double size = 1
                quatf xformOp:orient = (0, 0.707107, 0, 0.707107)
                float3 xformOp:scale = (0.385776, 0.1392422, 0.01476288)
                double3 xformOp:translate = (-0.231338, -0.0274506, -0.185574)
                uniform token[] xformOpOrder = ["xformOp:translate", "xformOp:orient", "xformOp:scale"]
            }

            def Cube "drawer_372d9ee41d70550432c30a66a6e5b331_1_1_0_collision_4" (
                apiSchemas = ["PhysicsCollisionAPI", "PhysxCollisionAPI", "PhysicsMassAPI"]
            )
            {
                float3[] extent = [(-0.5, -0.5, -0.5), (0.5, 0.5, 0.5)]
                float physics:density = 500
                uniform token purpose = "guide"
                double size = 1
                quatf xformOp:orient = (0, 0.707107, 0, 0.707107)
                float3 xformOp:scale = (0.385776, 0.1392422, 0.01476288)
                double3 xformOp:translate = (0.230862, -0.0274506, -0.185573)
                uniform token[] xformOpOrder = ["xformOp:translate", "xformOp:orient", "xformOp:scale"]
            }

            def Cube "drawer_372d9ee41d70550432c30a66a6e5b331_1_1_0_collision_5" (
                apiSchemas = ["PhysicsCollisionAPI", "PhysxCollisionAPI", "PhysicsMassAPI"]
            )
            {
                float3[] extent = [(-0.5, -0.5, -0.5), (0.5, 0.5, 0.5)]
                float physics:density = 500
                uniform token purpose = "guide"
                double size = 1
                quatf xformOp:orient = (-0.5, 0.5, 0.5, 0.5)
                float3 xformOp:scale = (0.385776, 0.474706, 0.01006012)
                double3 xformOp:translate = (-0.000725269, -0.0934891, -0.185573)
                uniform token[] xformOpOrder = ["xformOp:translate", "xformOp:orient", "xformOp:scale"]
            }

            def PhysicsPrismaticJoint "drawer_372d9ee41d70550432c30a66a6e5b331_1_1_0_joint_0" (
                apiSchemas = ["PhysicsDriveAPI:linear", "PhysxJointAPI"]
            )
            {
                float drive:linear:physics:damping = 0.05
                float drive:linear:physics:stiffness = 0
                uniform token drive:linear:physics:type = "force"
                uniform token physics:axis = "Z"
                rel physics:body0 = </MolmoDrawer/drawer_372d9ee41d70550432c30a66a6e5b331_1_0_0_art/drawer_372d9ee41d70550432c30a66a6e5b331_1_1_0>
                rel physics:body1 = </MolmoDrawer/drawer_372d9ee41d70550432c30a66a6e5b331_1_0_0_art/drawer_372d9ee41d70550432c30a66a6e5b331_1_0_0>
                point3f physics:localPos0 = (0, 0, -0.0112)
                point3f physics:localPos1 = (0, 0, 0)
                quatf physics:localRot0 = (-0, -1, -0, 0)
                quatf physics:localRot1 = (-3.434454e-33, -1, 7.143156e-18, 7.143156e-18)
                float physics:lowerLimit = 0
                float physics:upperLimit = 0.319
                custom float physxJoint:armature = 0.05
                custom float physxJoint:jointFriction = 1.5
            }
        }

        def Xform "drawer_372d9ee41d70550432c30a66a6e5b331_1_2_0" (
            apiSchemas = ["PhysicsRigidBodyAPI", "PhysxRigidBodyAPI", "PhysicsFilteredPairsAPI"]
        )
        {
            rel physics:filteredPairs = </MolmoDrawer/drawer_372d9ee41d70550432c30a66a6e5b331_1_0_0_art/drawer_372d9ee41d70550432c30a66a6e5b331_1_1_0>
            quatf xformOp:orient = (6.123234e-17, -1.2141312e-16, 0.70710677, 0.70710677)
            float3 xformOp:scale = (1, 1, 1)
            double3 xformOp:translate = (0.95, -2.1699000999999996, 0.526)
            uniform token[] xformOpOrder = ["xformOp:translate", "xformOp:orient", "xformOp:scale"]

            def Mesh "drawer_372d9ee41d70550432c30a66a6e5b331_1_2_0_visual_6" (
                apiSchemas = ["MaterialBindingAPI"]
            )
            {
                float3[] extent = [(-0.08899, -0.00341, 0), (0.089, 0.01889, 0.03259)]
                int[] faceVertexCounts = [3, 3, 3, 3, 3, 3, 3, 3, 3, 3, 3, 3, 3, 3, 3, 3, 3, 3, 3, 3, 3, 3, 3, 3, 3, 3, 3, 3, 3, 3, 3, 3, 3, 3, 3, 3, 3, 3, 3, 3, 3, 3, 3, 3, 3, 3, 3, 3, 3, 3, 3, 3, 3, 3, 3, 3, 3, 3, 3, 3, 3, 3, 3, 3, 3, 3, 3, 3, 3, 3, 3, 3, 3, 3, 3, 3, 3, 3, 3, 3, 3, 3, 3, 3, 3, 3, 3, 3, 3, 3, 3, 3, 3, 3, 3, 3, 3, 3, 3, 3, 3, 3, 3, 3, 3, 3, 3, 3, 3, 3, 3, 3, 3, 3, 3, 3, 3, 3, 3, 3, 3, 3, 3, 3, 3, 3, 3, 3, 3, 3, 3, 3, 3, 3, 3, 3, 3, 3, 3, 3, 3, 3, 3, 3, 3, 3, 3, 3, 3, 3, 3, 3, 3, 3, 3, 3, 3, 3, 3, 3, 3, 3, 3, 3, 3, 3, 3, 3, 3, 3, 3, 3, 3, 3, 3, 3, 3, 3, 3, 3]
                int[] faceVertexIndices = [2, 1, 0, 1, 3, 0, 3, 1, 4, 1, 5, 4, 4, 6, 3, 7, 0, 3, 0, 7, 8, 7, 9, 8, 10, 7, 3, 6, 10, 3, 7, 10, 11, 10, 12, 11, 10, 6, 12, 6, 13, 12, 16, 15, 14, 15, 17, 14, 17, 18, 14, 18, 19, 14, 14, 19, 20, 19, 21, 20, 19, 22, 21, 19, 18, 22, 22, 23, 21, 18, 24, 22, 25, 18, 17, 18, 25, 24, 26, 25, 17, 25, 27, 24, 30, 29, 28, 29, 31, 28, 31, 29, 32, 29, 33, 32, 32, 34, 31, 28, 31, 35, 28, 35, 36, 35, 37, 36, 31, 38, 35, 34, 38, 31, 35, 38, 39, 38, 40, 39, 38, 34, 40, 34, 41, 40, 44, 43, 42, 43, 45, 42, 42, 45, 46, 47, 42, 46, 48, 45, 43, 46, 45, 48, 49, 48, 43, 43, 50, 49, 51, 46, 48, 51, 52, 46, 52, 53, 46, 52, 54, 53, 54, 55, 53, 54, 52, 56, 57, 54, 56, 52, 51, 58, 56, 52, 58, 56, 59, 57, 59, 56, 58, 59, 60, 57, 61, 59, 58, 58, 51, 62, 58, 62, 61, 51, 48, 62, 62, 63, 61, 62, 48, 64, 48, 49, 64, 65, 63, 62, 64, 65, 62, 66, 63, 65, 67, 66, 65, 64, 68, 65, 64, 49, 68, 68, 69, 65, 49, 70, 68, 50, 70, 49, 68, 71, 69, 68, 70, 71, 71, 72, 69, 70, 73, 71, 70, 50, 73, 50, 74, 73, 77, 76, 75, 76, 78, 75, 79, 78, 76, 80, 79, 76, 81, 78, 79, 75, 78, 81, 82, 81, 79, 79, 83, 82, 84, 75, 81, 84, 85, 75, 85, 86, 75, 85, 87, 86, 87, 88, 86, 87, 85, 89, 90, 87, 89, 85, 84, 91, 89, 85, 91, 89, 92, 90, 92, 89, 91, 92, 93, 90, 94, 92, 91, 91, 84, 95, 84, 81, 95, 91, 95, 94, 95, 81, 96, 81, 82, 96, 95, 97, 94, 94, 97, 98, 99, 94, 98, 100, 97, 95, 96, 100, 95, 96, 101, 100, 96, 82, 101, 101, 102, 100, 82, 103, 101, 83, 103, 82, 101, 104, 102, 101, 103, 104, 104, 105, 102, 103, 106, 104, 103, 83, 106, 83, 107, 106, 110, 109, 108, 111, 110, 108, 108, 112, 111, 111, 113, 110, 113, 114, 110, 113, 115, 114, 115, 116, 114, 113, 117, 115, 117, 113, 111, 117, 118, 115, 112, 119, 111, 119, 117, 111, 117, 120, 118, 120, 117, 119, 120, 121, 118, 122, 120, 119, 119, 112, 122, 112, 123, 122, 126, 125, 124, 127, 126, 124, 124, 128, 127, 126, 127, 129, 128, 130, 127, 130, 128, 131, 128, 132, 131, 131, 133, 130, 130, 134, 127, 133, 134, 130, 127, 135, 129, 134, 135, 127, 135, 136, 129, 135, 134, 136, 136, 137, 129, 134, 138, 136, 134, 133, 138, 133, 139, 138, 142, 141, 140, 143, 142, 140, 140, 144, 143, 143, 145, 142, 145, 146, 142, 144, 147, 143, 143, 147, 145, 145, 148, 146, 148, 149, 146, 145, 150, 148, 147, 150, 145, 150, 151, 148, 150, 152, 151, 152, 150, 147, 152, 153, 151, 154, 152, 147, 147, 144, 154, 144, 155, 154]
                rel material:binding = </FloorPlan1_physics/Materials/material_HammeredMetal_AlbedoTransparency_2>
                uniform token orientation = "rightHanded"
                point3f[] points = [(-0.08856, -0.00341, 0.03216), (-0.08886, -0.00328, 0.00045), (-0.08887, -0.00327, 0.03212), (-0.08855, -0.00341, 0.00045), (-0.08855, -0.00328, 0.00013), (-0.08881, -0.00322, 0.00019), (0.08856, -0.00328, 0.00013), (0.08858, -0.00341, 0.03216), (-0.08856, -0.00328, 0.03246), (0.08857, -0.00328, 0.03247), (0.08856, -0.00341, 0.00045), (0.08888, -0.00327, 0.03212), (0.08887, -0.00328, 0.00045), (0.08882, -0.00322, 0.00019), (-0.08856, -0.00297, 0.03259), (0.08857, -0.00328, 0.03247), (-0.08856, -0.00328, 0.03246), (0.08857, -0.00297, 0.03259), (0.08856, 0.01845, 0.03259), (-0.08855, 0.01845, 0.03259), (-0.08887, -0.00264, 0.03247), (-0.08886, 0.01845, 0.03246), (-0.08855, 0.01876, 0.03246), (-0.08881, 0.01871, 0.0324), (0.08856, 0.01876, 0.03246), (0.08887, 0.01845, 0.03246), (0.08888, -0.00264, 0.03247), (0.08882, 0.01871, 0.0324), (-0.08855, 0.00386, 0.02898), (-0.08886, 0.01845, 0.02911), (-0.08887, 0.00369, 0.02912), (-0.08855, 0.01845, 0.02898), (-0.08855, 0.01876, 0.02911), (-0.08881, 0.01871, 0.02917), (0.08856, 0.01876, 0.02911), (0.08856, 0.00386, 0.02898), (-0.08856, 0.00355, 0.02885), (0.08856, 0.00355, 0.02885), (0.08856, 0.01845, 0.02898), (0.08888, 0.00369, 0.02912), (0.08887, 0.01845, 0.02911), (0.08882, 0.01871, 0.02917), (-0.08856, -0.00328, 0.03246), (-0.08887, -0.00264, 0.03247), (-0.08856, -0.00297, 0.03259), (-0.08887, -0.00309, 0.03236), (-0.08887, -0.00327, 0.03212), (-0.08856, -0.00341, 0.03216), (-0.08899, -0.00263, 0.03209), (-0.08899, -0.00187, 0.03214), (-0.08886, 0.01845, 0.03246), (-0.08899, -0.00295, 0.03198), (-0.08899, -0.00296, 0.00045), (-0.08886, -0.00328, 0.00045), (-0.08886, -0.00296, 0.00013), (-0.08881, -0.00322, 0.00019), (-0.08899, 0.00297, 0.00045), (-0.08886, 0.00297, 0.00013), (-0.08899, 0.00295, 0.02885), (-0.08886, 0.00329, 0.00045), (-0.08881, 0.00323, 0.00019), (-0.08887, 0.00328, 0.02865), (-0.08899, 0.00304, 0.02924), (-0.08887, 0.00341, 0.02898), (-0.08899, 0.00326, 0.0294), (-0.08887, 0.00369, 0.02912), (-0.08856, 0.00355, 0.02885), (-0.08855, 0.00386, 0.02898), (-0.08899, 0.01845, 0.02942), (-0.08886, 0.01845, 0.02911), (-0.08899, 0.01845, 0.03215), (-0.08886, 0.01876, 0.02942), (-0.08881, 0.01871, 0.02917), (-0.08886, 0.01876, 0.03215), (-0.08881, 0.01871, 0.0324), (0.08888, -0.00264, 0.03247), (0.08857, -0.00328, 0.03247), (0.08857, -0.00297, 0.03259), (0.08888, -0.00309, 0.03236), (0.08888, -0.00327, 0.03212), (0.08858, -0.00341, 0.03216), (0.089, -0.00264, 0.0321), (0.089, -0.00296, 0.03199), (0.08887, -0.00328, 0.00045), (0.089, -0.00187, 0.03214), (0.089, 0.01845, 0.03215), (0.08887, 0.01845, 0.03246), (0.08887, 0.01876, 0.03215), (0.08882, 0.01871, 0.0324), (0.089, 0.01845, 0.02942), (0.08887, 0.01876, 0.02942), (0.089, 0.00326, 0.0294), (0.08887, 0.01845, 0.02911), (0.08882, 0.01871, 0.02917), (0.08888, 0.00369, 0.02912), (0.089, 0.00304, 0.02924), (0.089, 0.00295, 0.02885), (0.08888, 0.00341, 0.02898), (0.08856, 0.00355, 0.02885), (0.08856, 0.00386, 0.02898), (0.08888, 0.00328, 0.02864), (0.089, 0.00297, 0.00045), (0.08887, 0.00329, 0.00045), (0.089, -0.00296, 0.00045), (0.08887, 0.00297, 0.00013), (0.08882, 0.00323, 0.00019), (0.08887, -0.00296, 0.00013), (0.08882, -0.00322, 0.00019), (-0.08856, 0.00355, 0.02885), (-0.08887, 0.00341, 0.02898), (-0.08887, 0.00328, 0.02865), (-0.08857, 0.00342, 0.02855), (0.08856, 0.00355, 0.02885), (-0.08855, 0.00342, 0.00045), (-0.08886, 0.00329, 0.00045), (-0.08855, 0.00329, 0.00013), (-0.08881, 0.00323, 0.00019), (0.08856, 0.00342, 0.00045), (0.08856, 0.00329, 0.00013), (0.08857, 0.00342, 0.02854), (0.08887, 0.00329, 0.00045), (0.08882, 0.00323, 0.00019), (0.08888, 0.00328, 0.02864), (0.08888, 0.00341, 0.02898), (-0.08855, 0.00329, 0.00013), (-0.08881, 0.00323, 0.00019), (-0.08886, 0.00297, 0.00013), (-0.08855, 0.00297, 0), (0.08856, 0.00329, 0.00013), (-0.08886, -0.00296, 0.00013), (0.08856, 0.00297, 0), (0.08887, 0.00297, 0.00013), (0.08882, 0.00323, 0.00019), (0.08887, -0.00296, 0.00013), (0.08856, -0.00296, 0), (-0.08855, -0.00296, 0), (-0.08855, -0.00328, 0.00013), (-0.08881, -0.00322, 0.00019), (0.08856, -0.00328, 0.00013), (0.08882, -0.00322, 0.00019), (-0.08886, 0.01876, 0.02942), (-0.08881, 0.01871, 0.02917), (-0.08855, 0.01876, 0.02911), (-0.08855, 0.01889, 0.02942), (-0.08886, 0.01876, 0.03215), (0.08856, 0.01889, 0.02942), (0.08856, 0.01876, 0.02911), (-0.08855, 0.01889, 0.03215), (0.08887, 0.01876, 0.02942), (0.08882, 0.01871, 0.02917), (0.08856, 0.01889, 0.03215), (0.08887, 0.01876, 0.03215), (0.08856, 0.01876, 0.03246), (0.08882, 0.01871, 0.0324), (-0.08855, 0.01876, 0.03246), (-0.08881, 0.01871, 0.0324)]
                normal3f[] primvars:normals = [(-0.6678517, -0.7442818, 0.00429956), (-0.7163775, -0.697708, -0.00261697), (-0.0007021, -0.9999919, 0.00396904), (-0.0007538, -0.9999915, -0.00404292), (-0.00048832, -0.7071066, -0.7071066), (-0.5773041, -0.5774034, -0.5773431), (0.00048829, -0.7071068, -0.7071066), (0.000695, -0.999992, 0.00393699), (-0.00102923, -0.7035523, 0.7106427), (0.00099038, -0.7060102, 0.708201), (0.00074661, -0.9999915, -0.00404227), (0.6677933, -0.7443349, 0.00420714), (0.71661, -0.6974687, -0.0027553), (0.577293, -0.577394, -0.5773639), (-0.00037283, -0.00579599, 0.9999832), (0.00037226, -0.00584392, 0.9999828), (0.00069445, 0.00595741, 0.999982), (-0.00069445, 0.00595731, 0.999982), (-0.4975892, -0.00268897, 0.8674086), (-0.7100878, 0.00432816, 0.7040998), (-0.00048833, 0.7071071, 0.7071062), (-0.5772987, 0.577367, 0.5773851), (0.00048835, 0.7071071, 0.7071063), (0.7100878, 0.00432783, 0.7040998), (0.4974751, -0.00255025, 0.8674746), (0.5773152, 0.5773496, 0.5773861), (-0.802505, 0.00566552, -0.5966185), (-0.7014703, 0.00580261, -0.712675), (-0.00096894, 0.00860795, -0.9999626), (-0.00074676, 0.00869111, -0.999962), (-0.00048855, 0.7071071, -0.7071063), (-0.5773876, 0.5773783, -0.5772848), (0.00048856, 0.7071071, -0.7071062), (0.00096907, 0.00855436, -0.9999629), (-0.00120957, 0.7016538, -0.712517), (0.00119872, 0.6997476, -0.7143893), (0.00074676, 0.00869126, -0.999962), (0.8024935, 0.00569665, -0.5966337), (0.7014666, 0.00580254, -0.7126787), (0.5774003, 0.5773703, -0.5772802), (-0.7858914, -0.315754, 0.531671), (-0.9994192, -0.00701533, 0.03334612), (-0.988553, -0.00005383, 0.1508738), (-0.9993138, -0.03703666, 0.00035011), (-0.9997597, -0.02151494, -0.00420047), (-0.7070345, -0.01405316, -0.7070394), (-0.999805, 0.01928828, -0.00422123), (-0.7070345, 0.01405586, -0.7070395), (-0.9999479, 0.01020453, -0.00006276), (-0.7223241, 0.6915481, -0.0030187), (-0.577276, 0.5774357, -0.5773391), (-0.787554, 0.61624, -0.00266406), (-0.9999272, 0.00986256, -0.00695781), (-0.8614656, 0.3864137, -0.329487), (-0.9999547, 0.00027713, -0.00952049), (-0.9993175, 0.00704562, -0.036259), (-0.9988563, 0.00677546, 0.04732935), (-0.706805, 0.7068016, -0.02929608), (-0.7068036, 0.7068021, 0.02931751), (0.7836391, -0.3064834, 0.5403496), (0.9994175, -0.00652196, 0.03349595), (0.999325, -0.03673469, 0.00034269), (0.9885543, -0.0000477, 0.1508655), (0.9988563, 0.00677581, 0.04732933), (0.706798, 0.7068077, 0.02931624), (0.9993176, 0.00704605, -0.03625763), (0.7067989, 0.7068079, -0.02929474), (0.9999547, 0.00027642, -0.00952107), (0.9999253, 0.00997927, -0.00706533), (0.9999481, 0.01018739, -0.00006405), (0.8591703, 0.3897705, -0.3315197), (0.78561, 0.6187161, -0.00269547), (0.9998028, 0.01940597, -0.00421662), (0.7188439, 0.6951652, -0.00298782), (0.9997645, -0.02129278, -0.0042033), (0.7070348, 0.01405419, -0.7070391), (0.5773052, 0.577408, -0.5773376), (0.7070343, -0.01405261, -0.7070395), (-0.00087363, 0.9999895, -0.00451455), (-0.00073533, 0.9999894, -0.00455674), (-0.00048827, 0.7071066, -0.7071066), (0.00073146, 0.9999894, -0.00455754), (0.00048833, 0.7071066, -0.7071068), (0.00087087, 0.9999894, -0.00454283), (-0.00071775, 0.02072039, -0.9997851), (0.00071774, 0.02072144, -0.999785), (0.00071769, -0.02072003, -0.9997851), (-0.00071772, -0.02072108, -0.999785), (-0.00070368, 0.9990925, -0.04258818), (0.00070368, 0.9990925, -0.04258886), (-0.00070387, 0.9990926, 0.04258478), (0.00070387, 0.9990926, 0.04258546)] (
                    interpolation = "faceVarying"
                )
                int[] primvars:normals:indices = [0, 1, 2, 1, 3, 2, 3, 1, 4, 1, 5, 4, 4, 6, 3, 7, 2, 3, 2, 7, 8, 7, 9, 8, 10, 7, 3, 6, 10, 3, 7, 10, 11, 10, 12, 11, 10, 6, 12, 6, 13, 12, 8, 9, 14, 9, 15, 14, 15, 16, 14, 16, 17, 14, 14, 17, 18, 17, 19, 18, 17, 20, 19, 17, 16, 20, 20, 21, 19, 16, 22, 20, 23, 16, 15, 16, 23, 22, 24, 23, 15, 23, 25, 22, 26, 27, 28, 27, 29, 28, 29, 27, 30, 27, 31, 30, 30, 32, 29, 28, 29, 33, 28, 33, 34, 33, 35, 34, 29, 36, 33, 32, 36, 29, 33, 36, 37, 36, 38, 37, 36, 32, 38, 32, 39, 38, 14, 18, 8, 18, 40, 8, 8, 40, 0, 2, 8, 0, 41, 40, 18, 0, 40, 41, 42, 41, 18, 18, 19, 42, 43, 0, 41, 43, 44, 0, 44, 1, 0, 44, 45, 1, 45, 5, 1, 45, 44, 46, 47, 45, 46, 44, 43, 48, 46, 44, 48, 46, 49, 47, 49, 46, 48, 49, 50, 47, 51, 49, 48, 48, 43, 52, 48, 52, 51, 43, 41, 52, 52, 53, 51, 52, 41, 54, 41, 42, 54, 26, 53, 52, 54, 26, 52, 34, 53, 26, 28, 34, 26, 54, 55, 26, 54, 42, 55, 55, 27, 26, 42, 56, 55, 19, 56, 42, 55, 57, 27, 55, 56, 57, 57, 31, 27, 56, 58, 57, 56, 19, 58, 19, 21, 58, 15, 9, 24, 9, 59, 24, 11, 59, 9, 7, 11, 9, 60, 59, 11, 24, 59, 60, 61, 60, 11, 11, 12, 61, 62, 24, 60, 62, 63, 24, 63, 23, 24, 63, 64, 23, 64, 25, 23, 64, 63, 65, 66, 64, 65, 63, 62, 67, 65, 63, 67, 65, 38, 66, 38, 65, 67, 38, 39, 66, 37, 38, 67, 67, 62, 68, 62, 60, 68, 67, 68, 37, 68, 60, 69, 60, 61, 69, 68, 70, 37, 37, 70, 35, 33, 37, 35, 71, 70, 68, 69, 71, 68, 69, 72, 71, 69, 61, 72, 72, 73, 71, 61, 74, 72, 12, 74, 61, 72, 75, 73, 72, 74, 75, 75, 76, 73, 74, 77, 75, 74, 12, 77, 12, 13, 77, 51, 53, 34, 78, 51, 34, 34, 35, 78, 78, 79, 51, 79, 49, 51, 79, 80, 49, 80, 50, 49, 79, 81, 80, 81, 79, 78, 81, 82, 80, 35, 83, 78, 83, 81, 78, 81, 73, 82, 73, 81, 83, 73, 76, 82, 71, 73, 83, 83, 35, 71, 35, 70, 71, 47, 50, 80, 84, 47, 80, 80, 82, 84, 47, 84, 45, 82, 85, 84, 85, 82, 75, 82, 76, 75, 75, 77, 85, 85, 86, 84, 77, 86, 85, 84, 87, 45, 86, 87, 84, 87, 4, 45, 87, 86, 4, 4, 5, 45, 86, 6, 4, 86, 77, 6, 77, 13, 6, 30, 31, 57, 88, 30, 57, 57, 58, 88, 88, 89, 30, 89, 32, 30, 58, 90, 88, 88, 90, 89, 89, 66, 32, 66, 39, 32, 89, 91, 66, 90, 91, 89, 91, 64, 66, 91, 22, 64, 22, 91, 90, 22, 25, 64, 20, 22, 90, 90, 58, 20, 58, 21, 20]
                texCoord2f[] primvars:st = [(-9.831882, -0.01871353), (-9.832475, -0.0807029), (-9.83248, -0.01879346), (-9.831864, -0.0807029), (-9.831862, -0.0813145), (-9.832364, -0.08120203), (-9.485614, -0.08131449), (-9.485579, -0.01869657), (-9.83188, -0.01811397), (-9.485586, -0.01810888), (-9.485612, -0.08070283), (-9.484991, -0.01877561), (-9.485002, -0.08070282), (-9.485112, -0.08120205), (-9.831939, -0.2291762), (-9.485529, -0.2297756), (-9.831938, -0.2297755), (-9.485539, -0.2291761), (-9.485556, -0.1872829), (-9.831921, -0.187283), (-9.832542, -0.2285337), (-9.832533, -0.187283), (-9.831923, -0.1866711), (-9.83242, -0.1867836), (-9.485556, -0.186671), (-9.484943, -0.187283), (-9.484934, -0.2285335), (-9.485056, -0.1867836), (-9.831984, 0.273658), (-9.832599, 0.2451113), (-9.832603, 0.2739904), (-9.831988, 0.2451113), (-9.831986, 0.2444991), (-9.832488, 0.2446118), (-9.485442, 0.244499), (-9.485447, 0.2736581), (-9.831999, 0.2742732), (-9.485437, 0.2742732), (-9.485442, 0.2451113), (-9.484829, 0.2739904), (-9.484832, 0.2451113), (-9.484942, 0.2446117), (-9.220046, 0.4201437), (-9.220033, 0.4213908), (-9.219795, 0.4207456), (-9.220254, 0.4205178), (-9.220729, 0.4201677), (-9.220649, 0.4198944), (-9.220774, 0.4214132), (-9.220682, 0.4229079), (-9.22005, 0.4628108), (-9.220994, 0.4207947), (-9.282912, 0.4207633), (-9.282912, 0.4201489), (-9.283526, 0.4207632), (-9.283415, 0.4202618), (-9.282913, 0.4324199), (-9.283527, 0.43242), (-9.227134, 0.4323735), (-9.282913, 0.4330342), (-9.283414, 0.4329214), (-9.227539, 0.4330293), (-9.226373, 0.4325491), (-9.226883, 0.4332685), (-9.226054, 0.4329749), (-9.22662, 0.4338281), (-9.227135, 0.4335442), (-9.226887, 0.4341615), (-9.226016, 0.4628108), (-9.22663, 0.4628108), (-9.220664, 0.4628108), (-9.226018, 0.4634252), (-9.22652, 0.4633122), (-9.220666, 0.4634252), (-9.220164, 0.4633123), (-9.283292, 0.5527388), (-9.283283, 0.5514919), (-9.283526, 0.5520937), (-9.283076, 0.5518625), (-9.282614, 0.5515107), (-9.282692, 0.5512425), (-9.282555, 0.5527498), (-9.282351, 0.5521264), (-9.22041, 0.5514969), (-9.282641, 0.5542561), (-9.282659, 0.5941591), (-9.283273, 0.5941591), (-9.282659, 0.5947735), (-9.283159, 0.5946606), (-9.277305, 0.5941591), (-9.277307, 0.5947735), (-9.277267, 0.5643231), (-9.27669, 0.5941591), (-9.276804, 0.5946606), (-9.276704, 0.5651762), (-9.276954, 0.5639005), (-9.276191, 0.5637259), (-9.27644, 0.5646187), (-9.276186, 0.5648926), (-9.276436, 0.5655097), (-9.275777, 0.5643803), (-9.22041, 0.563768), (-9.22041, 0.5643822), (-9.220411, 0.5521113), (-9.219795, 0.5637682), (-9.219908, 0.5642695), (-9.219797, 0.5521113), (-9.219909, 0.5516098), (-9.831885, 0.1012738), (-9.832492, 0.1010244), (-9.832493, 0.1016787), (-9.8319, 0.1018671), (-9.485577, 0.1012779), (-9.831875, 0.1568132), (-9.832485, 0.1568132), (-9.831874, 0.157425), (-9.832374, 0.1573126), (-9.485582, 0.1568132), (-9.485581, 0.157425), (-9.485569, 0.1018804), (-9.48497, 0.1568132), (-9.485084, 0.1573125), (-9.484966, 0.1016854), (-9.484965, 0.1010261), (-9.832376, 0.3212014), (-9.832874, 0.3213138), (-9.832987, 0.321815), (-9.832373, 0.321815), (-9.485045, 0.3212013), (-9.832989, 0.333456), (-9.485044, 0.321815), (-9.48443, 0.321815), (-9.484543, 0.3213138), (-9.484432, 0.3334559), (-9.485044, 0.3334559), (-9.832375, 0.333456), (-9.832375, 0.3340696), (-9.832874, 0.333957), (-9.485044, 0.3340695), (-9.484543, 0.333957), (-9.833638, 0.3657221), (-9.833522, 0.366225), (-9.83302, 0.3663383), (-9.833021, 0.3657223), (-9.833636, 0.3603572), (-9.484398, 0.3657222), (-9.484399, 0.3663382), (-9.83302, 0.3603572), (-9.483783, 0.365722), (-9.483895, 0.366225), (-9.484397, 0.3603571), (-9.483783, 0.3603571), (-9.484399, 0.3597415), (-9.483895, 0.3598547), (-9.83302, 0.3597416), (-9.833522, 0.3598547)] (
                    interpolation = "faceVarying"
                )
                int[] primvars:st:indices = [2, 1, 0, 1, 3, 0, 3, 1, 4, 1, 5, 4, 4, 6, 3, 7, 0, 3, 0, 7, 8, 7, 9, 8, 10, 7, 3, 6, 10, 3, 7, 10, 11, 10, 12, 11, 10, 6, 12, 6, 13, 12, 16, 15, 14, 15, 17, 14, 17, 18, 14, 18, 19, 14, 14, 19, 20, 19, 21, 20, 19, 22, 21, 19, 18, 22, 22, 23, 21, 18, 24, 22, 25, 18, 17, 18, 25, 24, 26, 25, 17, 25, 27, 24, 30, 29, 28, 29, 31, 28, 31, 29, 32, 29, 33, 32, 32, 34, 31, 28, 31, 35, 28, 35, 36, 35, 37, 36, 31, 38, 35, 34, 38, 31, 35, 38, 39, 38, 40, 39, 38, 34, 40, 34, 41, 40, 44, 43, 42, 43, 45, 42, 42, 45, 46, 47, 42, 46, 48, 45, 43, 46, 45, 48, 49, 48, 43, 43, 50, 49, 51, 46, 48, 51, 52, 46, 52, 53, 46, 52, 54, 53, 54, 55, 53, 54, 52, 56, 57, 54, 56, 52, 51, 58, 56, 52, 58, 56, 59, 57, 59, 56, 58, 59, 60, 57, 61, 59, 58, 58, 51, 62, 58, 62, 61, 51, 48, 62, 62, 63, 61, 62, 48, 64, 48, 49, 64, 65, 63, 62, 64, 65, 62, 66, 63, 65, 67, 66, 65, 64, 68, 65, 64, 49, 68, 68, 69, 65, 49, 70, 68, 50, 70, 49, 68, 71, 69, 68, 70, 71, 71, 72, 69, 70, 73, 71, 70, 50, 73, 50, 74, 73, 77, 76, 75, 76, 78, 75, 79, 78, 76, 80, 79, 76, 81, 78, 79, 75, 78, 81, 82, 81, 79, 79, 83, 82, 84, 75, 81, 84, 85, 75, 85, 86, 75, 85, 87, 86, 87, 88, 86, 87, 85, 89, 90, 87, 89, 85, 84, 91, 89, 85, 91, 89, 92, 90, 92, 89, 91, 92, 93, 90, 94, 92, 91, 91, 84, 95, 84, 81, 95, 91, 95, 94, 95, 81, 96, 81, 82, 96, 95, 97, 94, 94, 97, 98, 99, 94, 98, 100, 97, 95, 96, 100, 95, 96, 101, 100, 96, 82, 101, 101, 102, 100, 82, 103, 101, 83, 103, 82, 101, 104, 102, 101, 103, 104, 104, 105, 102, 103, 106, 104, 103, 83, 106, 83, 107, 106, 110, 109, 108, 111, 110, 108, 108, 112, 111, 111, 113, 110, 113, 114, 110, 113, 115, 114, 115, 116, 114, 113, 117, 115, 117, 113, 111, 117, 118, 115, 112, 119, 111, 119, 117, 111, 117, 120, 118, 120, 117, 119, 120, 121, 118, 122, 120, 119, 119, 112, 122, 112, 123, 122, 126, 125, 124, 127, 126, 124, 124, 128, 127, 126, 127, 129, 128, 130, 127, 130, 128, 131, 128, 132, 131, 131, 133, 130, 130, 134, 127, 133, 134, 130, 127, 135, 129, 134, 135, 127, 135, 136, 129, 135, 134, 136, 136, 137, 129, 134, 138, 136, 134, 133, 138, 133, 139, 138, 142, 141, 140, 143, 142, 140, 140, 144, 143, 143, 145, 142, 145, 146, 142, 144, 147, 143, 143, 147, 145, 145, 148, 146, 148, 149, 146, 145, 150, 148, 147, 150, 145, 150, 151, 148, 150, 152, 151, 152, 150, 147, 152, 153, 151, 154, 152, 147, 147, 144, 154, 144, 155, 154]
                uniform token subdivisionScheme = "none"
                quatf xformOp:orient = (1, 0, 0, 0)
                float3 xformOp:scale = (1, 1, 1)
                matrix4d xformOp:transform = ( (1, 0, 0, 0), (0, 1, 0, 0), (0, 0, 1, 0), (0, 0, 0, 1) )
                double3 xformOp:translate = (0, 0, 0)
                uniform token[] xformOpOrder = ["xformOp:translate", "xformOp:orient", "xformOp:scale"]
            }

            def Cube "drawer_372d9ee41d70550432c30a66a6e5b331_1_2_0_collision_7" (
                apiSchemas = ["PhysicsCollisionAPI", "PhysxCollisionAPI", "PhysicsMassAPI"]
            )
            {
                float3[] extent = [(-0.5, -0.5, -0.5), (0.5, 0.5, 0.5)]
                float physics:density = 10000
                uniform token purpose = "guide"
                double size = 1
                quatf xformOp:orient = (0, 1, 0, 0)
                float3 xformOp:scale = (0.1775042, 0.00710982, 0.032863)
                double3 xformOp:translate = (0, 0, 0.0162902)
                uniform token[] xformOpOrder = ["xformOp:translate", "xformOp:orient", "xformOp:scale"]
            }

            def Cube "drawer_372d9ee41d70550432c30a66a6e5b331_1_2_0_collision_8" (
                apiSchemas = ["PhysicsCollisionAPI", "PhysxCollisionAPI", "PhysicsMassAPI"]
            )
            {
                float3[] extent = [(-0.5, -0.5, -0.5), (0.5, 0.5, 0.5)]
                float physics:density = 10000
                uniform token purpose = "guide"
                double size = 1
                quatf xformOp:orient = (0, 1, 0, 0)
                float3 xformOp:scale = (0.1775042, 0.01551962, 0.00384546)
                double3 xformOp:translate = (0, 0.0112849, 0.0307989)
                uniform token[] xformOpOrder = ["xformOp:translate", "xformOp:orient", "xformOp:scale"]
            }

            def PhysicsFixedJoint "PhysicsFixedJoint"
            {
                rel physics:body0 = </MolmoDrawer/drawer_372d9ee41d70550432c30a66a6e5b331_1_0_0_art/drawer_372d9ee41d70550432c30a66a6e5b331_1_1_0>
                rel physics:body1 = </MolmoDrawer/drawer_372d9ee41d70550432c30a66a6e5b331_1_0_0_art/drawer_372d9ee41d70550432c30a66a6e5b331_1_2_0>
                point3f physics:localPos0 = (0, -0.034, 0.0199999)
                point3f physics:localPos1 = (0, 0, 0)
                quatf physics:localRot0 = (1, 0, 0, 0)
                quatf physics:localRot1 = (1, 4.206144e-33, -4.8572257e-17, 4.8572257e-17)
            }
        }

        def Xform "drawer_372d9ee41d70550432c30a66a6e5b331_1_0_0" (
            apiSchemas = ["PhysicsRigidBodyAPI", "PhysxRigidBodyAPI", "PhysicsMassAPI"]
        )
        {
            float physics:mass = 1e-8
            quatf xformOp:orient = (6.123234e-17, -2.2993472e-17, 0.70710677, 0.70710677)
            float3 xformOp:scale = (1, 1, 1)
            double3 xformOp:translate = (0.95, -2.2011, 0.56)
            uniform token[] xformOpOrder = ["xformOp:translate", "xformOp:orient", "xformOp:scale"]

            def PhysicsFixedJoint "FixedJointToWorld"
            {
                rel physics:body1 = </MolmoDrawer/drawer_372d9ee41d70550432c30a66a6e5b331_1_0_0_art/drawer_372d9ee41d70550432c30a66a6e5b331_1_0_0>
            }
        }
    }
}

